<?xml version="1.0" encoding="UTF-8"?>
<svg viewBox="0 0 64 64" xmlns="http://www.w3.org/2000/svg">
  <!-- 漸變背景 -->
  <defs>
    <linearGradient id="cupGradient" x1="0%" y1="0%" x2="100%" y2="100%">
      <stop offset="0%" stop-color="#4facfe" />
      <stop offset="100%" stop-color="#00f2fe" />
    </linearGradient>
    <linearGradient id="strawGradient" x1="0%" y1="0%" x2="100%" y2="100%">
      <stop offset="0%" stop-color="#ff9a9e" />
      <stop offset="100%" stop-color="#fad0c4" />
    </linearGradient>
    <filter id="glow" x="-20%" y="-20%" width="140%" height="140%">
      <feGaussianBlur stdDeviation="2" result="blur" />
      <feComposite in="SourceGraphic" in2="blur" operator="over" />
    </filter>
  </defs>
  
  <!-- 主杯身 - 更藝術的曲線 -->
  <path d="M22,16 C22,16 20,18 19,25 C18,32 18,46 20,52 C22,58 42,58 44,52 C46,46 46,32 45,25 C44,18 42,16 42,16 Z" 
    fill="url(#cupGradient)" stroke="#ffffff" stroke-width="1.5" opacity="0.9" />
  
  <!-- 杯蓋 - 更優雅的曲線 -->
  <path d="M16,16 C16,16 18,13 32,13 C46,13 48,16 48,16" 
    stroke="#2c3e50" stroke-width="2.5" stroke-linecap="round" fill="none" />
  
  <!-- 冰塊 -->
  <polygon points="25,25 28,23 31,25 30,28 27,30 24,28" 
    fill="#ffffff" opacity="0.6" />
  <polygon points="35,28 38,26 41,28 40,31 37,33 34,31" 
    fill="#ffffff" opacity="0.5" />
  
  <!-- 泡泡群 - 更有趣的分布 -->
  <circle cx="26" cy="34" r="1.2" fill="#ffffff" opacity="0.8" />
  <circle cx="30" cy="31" r="0.8" fill="#ffffff" opacity="0.7" />
  <circle cx="34" cy="36" r="1" fill="#ffffff" opacity="0.9" />
  <circle cx="32" cy="40" r="1.5" fill="#ffffff" opacity="0.6" />
  <circle cx="36" cy="33" r="0.7" fill="#ffffff" opacity="0.8" />
  <circle cx="28" cy="37" r="0.9" fill="#ffffff" opacity="0.7" />
  
  <!-- 吸管 - 彎曲設計 -->
  <path d="M32,13 C32,13 32,8 36,6 C40,4 42,8 42,8" 
    stroke="url(#strawGradient)" stroke-width="2.5" stroke-linecap="round" fill="none" filter="url(#glow)" />
  
  <!-- 裝飾 - 簡單的杯身花紋 -->
  <path d="M24,35 C24,35 30,38 40,35" 
    stroke="#ffffff" stroke-width="0.8" stroke-linecap="round" fill="none" opacity="0.4" />
  <path d="M24,42 C24,42 30,45 40,42" 
    stroke="#ffffff" stroke-width="0.8" stroke-linecap="round" fill="none" opacity="0.3" />
</svg>